<?xml version="1.0" encoding="UTF-8"?>
<svg width="9px" height="14px" viewBox="0 0 9 14" version="1.1" xmlns="http://www.w3.org/2000/svg" xmlns:xlink="http://www.w3.org/1999/xlink">
    <!-- Generator: Sketch 52.2 (67145) - http://www.bohemiancoding.com/sketch -->
    <title>Group 7</title>
    <desc>Created with Sketch.</desc>
    <defs>
        <polygon id="path-1" points="4.45544554e-06 5.46875e-06 8.98189307 5.46875e-06 8.98189307 14 4.45544554e-06 14"></polygon>
    </defs>
    <g id="UI" stroke="none" stroke-width="1" fill="none" fill-rule="evenodd">
        <g id="Управление_Стр.Арендатора" transform="translate(-918.000000, -631.000000)">
            <g id="Group-5" transform="translate(360.000000, 231.000000)">
                <g id="Group-2">
                    <g id="Group" transform="translate(504.000000, 396.000000)">
                        <g id="Group-7" transform="translate(54.000000, 4.000000)">
                            <g id="Group-3">
                                <mask id="mask-2" fill="white">
                                    <use xlink:href="#path-1"></use>
                                </mask>
                                <g id="Clip-2"></g>
                                <path d="M2.28070248,2.73643125 C2.28070248,2.77113047 2.25771238,2.79934922 2.22946485,2.79934922 L0.940103465,2.79934922 L2.28070248,1.15380234 L2.28070248,2.73643125 Z M8.70659109,2.14315391 C8.85858861,2.14315391 8.98189307,1.99186094 8.98189307,1.80523984 L8.98189307,0.739025 C8.98189307,0.331548438 8.71193762,5.46875e-06 8.38009604,5.46875e-06 L2.5559599,5.46875e-06 C2.48295743,5.46875e-06 2.4129401,0.035634375 2.36127921,0.0989898438 L0.0806480198,2.89830625 C0.0290316832,2.96166172 4.45544554e-06,3.04763047 4.45544554e-06,3.13723594 L4.45544554e-06,13.2609313 C2.67326733e-05,13.6684625 0.270115842,14.0000055 0.602113366,14.0000055 L8.38007376,14.0000055 C8.71191535,14.0000055 8.98187079,13.6684625 8.98187079,13.2609586 L8.98187079,8.10165781 C8.98189307,7.91506406 8.85861089,7.76371641 8.70659109,7.76371641 C8.55457129,7.76371641 8.43128911,7.91503672 8.43128911,8.10165781 L8.43128911,13.2609586 C8.43128911,13.2958219 8.40832129,13.3241773 8.38011832,13.3241773 L0.602135644,13.3241773 C0.573754455,13.3241773 0.55065297,13.2958219 0.55065297,13.2609586 L0.55065297,3.47520469 L2.22946485,3.47520469 C2.56135099,3.47520469 2.83130644,3.14379844 2.83130644,2.73645859 L2.83130644,0.675833594 L8.38009604,0.675833594 C8.40832129,0.675833594 8.43126683,0.704189063 8.43126683,0.739025 L8.43126683,1.80523984 C8.43126683,1.99186094 8.55454901,2.14315391 8.70659109,2.14315391 Z" id="Fill-1" fill="#000000" mask="url(#mask-2)"></path>
                            </g>
                        </g>
                    </g>
                </g>
            </g>
        </g>
    </g>
</svg>