<?xml version="1.0" encoding="UTF-8"?>
<svg width="23px" height="22px" viewBox="0 0 23 22" version="1.1" xmlns="http://www.w3.org/2000/svg" xmlns:xlink="http://www.w3.org/1999/xlink">
    <!-- Generator: Sketch 52.2 (67145) - http://www.bohemiancoding.com/sketch -->
    <title>Group 6</title>
    <desc>Created with Sketch.</desc>
    <defs>
        <polygon id="path-1" points="1.16588772e-05 0.0184530612 21.9815604 0.0184530612 21.9815604 22 1.16588772e-05 22"></polygon>
    </defs>
    <g id="UI" stroke="none" stroke-width="1" fill="none" fill-rule="evenodd">
        <g id="Управление_Объекты" transform="translate(-255.000000, -321.000000)">
            <g id="Group-6" transform="translate(255.000000, 320.500000)">
                <g id="Group-3" transform="translate(0.000000, 0.500000)">
                    <mask id="mask-2" fill="white">
                        <use xlink:href="#path-1"></use>
                    </mask>
                    <g id="Clip-2"></g>
                    <path d="M21.0529808,9.15060816 C20.5401114,9.15060816 20.1243563,9.56636327 20.1243563,10.0791878 L20.1243563,11.0144571 C20.1230094,13.4541224 19.1716216,15.7472408 17.4454747,17.4713224 C15.7206298,19.1941469 13.4286339,20.142751 10.9909441,20.142751 L10.9855563,20.142751 C5.94926245,20.1398776 1.85429918,16.0402898 1.85717265,11.003951 C1.85856449,8.56433061 2.80995224,6.27121224 4.53609918,4.54704082 C6.26094408,2.82421633 8.5530298,1.87561224 10.9906747,1.87561224 L10.9960624,1.87561224 C12.2833767,1.87633061 13.5323482,2.14239592 14.7082257,2.6663102 C15.1767808,2.87508571 15.7255686,2.66446939 15.9343441,2.19604898 C16.1430298,1.72762857 15.9325482,1.17870612 15.4640829,0.969930612 C14.0490788,0.339428571 12.5461645,0.0193061224 10.9970951,0.0184530612 L10.9906298,0.0184530612 C8.05749102,0.0184530612 5.2990502,1.16011837 3.22359714,3.23314694 C1.14652776,5.30779184 0.00171959184,8.06717551 1.34693878e-05,11.0029633 C-0.0016477551,13.9386612 1.13992776,16.6993469 3.21466245,18.7764163 C5.28939714,20.8534857 8.04873592,21.9982939 10.9844788,22 L10.9909441,22 C13.9240829,22 16.6825237,20.8583796 18.7579767,18.7853061 C20.8350461,16.7106163 21.9798543,13.9512327 21.9815604,11.0149959 L21.9815604,10.0792327 C21.9815604,9.56636327 21.5658502,9.15060816 21.0529808,9.15060816" id="Fill-1" fill="#000000" mask="url(#mask-2)"></path>
                </g>
                <path d="M22.7441573,2.75247406 C22.4029914,2.41584198 21.849827,2.41584198 21.5087034,2.75247406 L11.7134789,12.4186834 L9.49131774,10.2257813 C9.15019409,9.88910753 8.59702974,9.88910753 8.25590609,10.2257813 C7.91469797,10.5624551 7.91469797,11.1082942 8.25590609,11.444968 L11.0958154,14.2474843 C11.2663772,14.415842 11.4899914,14.5 11.7135634,14.5 C11.9370932,14.5 12.1606652,14.415842 12.3313115,14.2474843 L22.7441573,3.97166076 C23.0852809,3.63498699 23.0852809,3.08914783 22.7441573,2.75247406" id="Fill-4" fill="#000000"></path>
            </g>
        </g>
    </g>
</svg>