<?xml version="1.0" encoding="UTF-8"?>
<svg width="32px" height="31px" viewBox="0 0 32 31" version="1.1" xmlns="http://www.w3.org/2000/svg" xmlns:xlink="http://www.w3.org/1999/xlink">
    <!-- Generator: Sketch 52.2 (67145) - http://www.bohemiancoding.com/sketch -->
    <title>Group 8</title>
    <desc>Created with Sketch.</desc>
    <defs>
        <polygon id="path-1" points="0 0.0393114754 31.9866722 0.0393114754 31.9866722 22 0 22"></polygon>
    </defs>
    <g id="UI" stroke="none" stroke-width="1" fill="none" fill-rule="evenodd">
        <g id="Управление_Объекты" transform="translate(-250.000000, -201.000000)">
            <g id="Group-8" transform="translate(250.000000, 201.000000)">
                <g id="Group-3" transform="translate(0.000000, 9.000000)">
                    <mask id="mask-2" fill="white">
                        <use xlink:href="#path-1"></use>
                    </mask>
                    <g id="Clip-2"></g>
                    <path d="M28.5601518,20.7978142 L24.4174384,20.7978142 L24.4174384,1.6551694 C24.4174384,1.42705464 24.6211167,1.24149727 24.8715085,1.24149727 L28.1060816,1.24149727 C28.3564734,1.24149727 28.5601518,1.42705464 28.5601518,1.6551694 L28.5601518,20.7978142 Z M18.1037394,20.7978142 L13.96096,20.7978142 L13.96096,10.3282787 C13.96096,10.1001639 14.1646384,9.91460656 14.4150301,9.91460656 L17.6496033,9.91460656 C17.8999951,9.91460656 18.1037394,10.1001639 18.1037394,10.3282787 L18.1037394,20.7978142 Z M7.64719505,20.7978142 L3.50448165,20.7978142 L3.50448165,15.3757158 C3.50448165,15.1476011 3.70816,14.9620437 3.95855175,14.9620437 L7.19312495,14.9620437 C7.4435167,14.9620437 7.64719505,15.1476011 7.64719505,15.3757158 L7.64719505,20.7978142 Z M31.3269311,20.7978142 L29.8797394,20.7978142 L29.8797394,1.6551694 C29.8797394,0.764169399 29.084028,0.0393114754 28.1060816,0.0393114754 L24.8715085,0.0393114754 C23.8934961,0.0393114754 23.0978507,0.764229508 23.0978507,1.6551694 L23.0978507,20.7978142 L19.423393,20.7978142 L19.423393,10.3282787 C19.423393,9.43727869 18.6276816,8.71242077 17.6497353,8.71242077 L14.4150961,8.71242077 C13.4370837,8.71242077 12.6414384,9.4373388 12.6414384,10.3282787 L12.6414384,20.7978142 L8.96691464,20.7978142 L8.96691464,15.3757158 C8.96691464,14.4847158 8.1712033,13.7598579 7.19325691,13.7598579 L3.95861773,13.7598579 C2.98060536,13.7598579 2.18496,14.484776 2.18496,15.3757158 L2.18496,20.7978142 L0.659780619,20.7978142 C0.295376495,20.7978142 -1.31958763e-05,21.0669235 -1.31958763e-05,21.3989071 C-1.31958763e-05,21.7308907 0.295376495,22 0.659780619,22 L31.3269311,22 C31.6912693,22 31.9867249,21.7308907 31.9867249,21.3989071 C31.9867249,21.0669235 31.6912693,20.7978142 31.3269311,20.7978142 Z" id="Fill-1" fill="#000000" mask="url(#mask-2)"></path>
                </g>
                <path d="M29.9984964,0.64209929 C30.0076488,0.47546854 29.9448898,0.306029064 29.8086505,0.178781544 C29.6724112,0.0515340244 29.4909331,-0.00714393466 29.312593,0.00146542249 C29.3020678,0.0010380076 29.291608,0 29.2808866,0 L25.3257631,0 C24.9647682,0 24.6720237,0.273362354 24.6720237,0.610592706 C24.6720237,0.947823057 24.9647682,1.22118541 25.3257631,1.22118541 L27.7680029,1.22118541 L21.3052657,7.25738278 L18.8681251,4.98109318 C18.745549,4.86660704 18.5792376,4.80225057 18.4059313,4.80225057 C18.2325596,4.80225057 18.0662483,4.86660704 17.9436722,4.98109318 L6.19146393,15.9577183 C5.93617869,16.1961547 5.93617869,16.582782 6.19146393,16.8212795 C6.31913924,16.9404062 6.48643116,17 6.65372308,17 C6.82094962,17 6.98830692,16.9404062 7.11598223,16.8211574 L18.4059313,6.27628242 L20.8430065,8.55257203 C21.0982918,8.79100848 21.5122396,8.79100848 21.7676556,8.55257203 L28.6925212,2.08474668 L28.6925212,4.14916061 C28.6925212,4.48639097 28.9852657,4.75975332 29.3462606,4.75975332 C29.7073862,4.75975332 30,4.48639097 30,4.14916061 L30,0.671651977 C30,0.661699315 29.998954,0.651990891 29.9984964,0.64209929" id="Fill-4" fill="#000000"></path>
                <path d="M4,17 C4.5523,17 5,17.4478 5,18 C5,18.5523 4.5523,19 4,19 C3.4477,19 3,18.5523 3,18 C3,17.4478 3.4477,17 4,17" id="Fill-6" fill="#000000"></path>
            </g>
        </g>
    </g>
</svg>