<?xml version="1.0" encoding="UTF-8"?>
<svg width="32px" height="32px" viewBox="0 0 32 32" version="1.1" xmlns="http://www.w3.org/2000/svg" xmlns:xlink="http://www.w3.org/1999/xlink">
    <!-- Generator: Sketch 52.2 (67145) - http://www.bohemiancoding.com/sketch -->
    <title>Group 19</title>
    <desc>Created with Sketch.</desc>
    <g id="UI" stroke="none" stroke-width="1" fill="none" fill-rule="evenodd">
        <g id="Управление_Объекты" transform="translate(-250.000000, -83.000000)" fill="#000000">
            <g id="Group-19" transform="translate(250.000000, 83.000000)">
                <path d="M4.5,30.875 C2.6386875,30.875 1.125,29.3613125 1.125,27.5 C1.125,25.6386875 2.6386875,24.125 4.5,24.125 C6.3613125,24.125 7.875,25.6386875 7.875,27.5 C7.875,29.3613125 6.3613125,30.875 4.5,30.875 M4.5,23 C2.0188125,23 0,25.0188125 0,27.5 C0,29.9811875 2.0188125,32 4.5,32 C6.9811875,32 9,29.9811875 9,27.5 C9,25.0188125 6.9811875,23 4.5,23" id="Fill-1"></path>
                <path d="M16.5,30.875 C14.6386875,30.875 13.125,29.3613125 13.125,27.5 C13.125,25.6386875 14.6386875,24.125 16.5,24.125 C18.3613125,24.125 19.875,25.6386875 19.875,27.5 C19.875,29.3613125 18.3613125,30.875 16.5,30.875 M16.5,23 C14.0188125,23 12,25.0188125 12,27.5 C12,29.9811875 14.0188125,32 16.5,32 C18.9811875,32 21,29.9811875 21,27.5 C21,25.0188125 18.9811875,23 16.5,23" id="Fill-3"></path>
                <path d="M27.5,30.875 C25.6386875,30.875 24.125,29.3613125 24.125,27.5 C24.125,25.6386875 25.6386875,24.125 27.5,24.125 C29.3613125,24.125 30.875,25.6386875 30.875,27.5 C30.875,29.3613125 29.3613125,30.875 27.5,30.875 M27.5,23 C25.0188125,23 23,25.0188125 23,27.5 C23,29.9811875 25.0188125,32 27.5,32 C29.9811875,32 32,29.9811875 32,27.5 C32,25.0188125 29.9811875,23 27.5,23" id="Fill-5"></path>
                <path d="M4.5,19.875 C2.6386875,19.875 1.125,18.3613125 1.125,16.5 C1.125,14.6386875 2.6386875,13.125 4.5,13.125 C6.3613125,13.125 7.875,14.6386875 7.875,16.5 C7.875,18.3613125 6.3613125,19.875 4.5,19.875 M4.5,12 C2.0188125,12 0,14.0188125 0,16.5 C0,18.9811875 2.0188125,21 4.5,21 C6.9811875,21 9,18.9811875 9,16.5 C9,14.0188125 6.9811875,12 4.5,12" id="Fill-7"></path>
                <path d="M16.5,19.875 C14.6386875,19.875 13.125,18.3613125 13.125,16.5 C13.125,14.6386875 14.6386875,13.125 16.5,13.125 C18.3613125,13.125 19.875,14.6386875 19.875,16.5 C19.875,18.3613125 18.3613125,19.875 16.5,19.875 M16.5,12 C14.0188125,12 12,14.0188125 12,16.5 C12,18.9811875 14.0188125,21 16.5,21 C18.9811875,21 21,18.9811875 21,16.5 C21,14.0188125 18.9811875,12 16.5,12" id="Fill-9"></path>
                <path d="M27.5,19.875 C25.6386875,19.875 24.125,18.3613125 24.125,16.5 C24.125,14.6386875 25.6386875,13.125 27.5,13.125 C29.3613125,13.125 30.875,14.6386875 30.875,16.5 C30.875,18.3613125 29.3613125,19.875 27.5,19.875 M27.5,12 C25.0188125,12 23,14.0188125 23,16.5 C23,18.9811875 25.0188125,21 27.5,21 C29.9811875,21 32,18.9811875 32,16.5 C32,14.0188125 29.9811875,12 27.5,12" id="Fill-11"></path>
                <path d="M4.5,7.875 C2.6386875,7.875 1.125,6.3613125 1.125,4.5 C1.125,2.6386875 2.6386875,1.125 4.5,1.125 C6.3613125,1.125 7.875,2.6386875 7.875,4.5 C7.875,6.3613125 6.3613125,7.875 4.5,7.875 M4.5,0 C2.0188125,0 0,2.0188125 0,4.5 C0,6.9811875 2.0188125,9 4.5,9 C6.9811875,9 9,6.9811875 9,4.5 C9,2.0188125 6.9811875,0 4.5,0" id="Fill-13"></path>
                <path d="M16.5,7.875 C14.6386875,7.875 13.125,6.3613125 13.125,4.5 C13.125,2.6386875 14.6386875,1.125 16.5,1.125 C18.3613125,1.125 19.875,2.6386875 19.875,4.5 C19.875,6.3613125 18.3613125,7.875 16.5,7.875 M16.5,0 C14.0188125,0 12,2.0188125 12,4.5 C12,6.9811875 14.0188125,9 16.5,9 C18.9811875,9 21,6.9811875 21,4.5 C21,2.0188125 18.9811875,0 16.5,0" id="Fill-15"></path>
                <path d="M27.5,1.125 C29.3613125,1.125 30.875,2.6386875 30.875,4.5 C30.875,6.3613125 29.3613125,7.875 27.5,7.875 C25.6386875,7.875 24.125,6.3613125 24.125,4.5 C24.125,2.6386875 25.6386875,1.125 27.5,1.125 M27.5,9 C29.9811875,9 32,6.9811875 32,4.5 C32,2.0188125 29.9811875,0 27.5,0 C25.0188125,0 23,2.0188125 23,4.5 C23,6.9811875 25.0188125,9 27.5,9" id="Fill-17"></path>
            </g>
        </g>
    </g>
</svg>