<?xml version="1.0" encoding="UTF-8"?>
<svg width="32px" height="31px" viewBox="0 0 32 31" version="1.1" xmlns="http://www.w3.org/2000/svg" xmlns:xlink="http://www.w3.org/1999/xlink">
    <!-- Generator: Sketch 52.2 (67145) - http://www.bohemiancoding.com/sketch -->
    <title>Group 7</title>
    <desc>Created with Sketch.</desc>
    <g id="UI" stroke="none" stroke-width="1" fill="none" fill-rule="evenodd">
        <g id="Управление_Объекты" transform="translate(-250.000000, -143.000000)" fill="#000000">
            <g id="Group-7" transform="translate(250.000000, 143.000000)">
                <path d="M4,29.8518519 C2.42457143,29.8518519 1.14285714,28.5642037 1.14285714,26.9814815 C1.14285714,25.3987593 2.42457143,24.1111111 4,24.1111111 C5.57542857,24.1111111 6.85714286,25.3987593 6.85714286,26.9814815 C6.85714286,28.5642037 5.57542857,29.8518519 4,29.8518519 M4.57142857,23.0088889 L4.57142857,0.574074074 C4.57142857,0.256611111 4.31542857,0 4,0 C3.68457143,0 3.42857143,0.256611111 3.42857143,0.574074074 L3.42857143,23.0088889 C1.49314286,23.289037 0,24.9613148 0,26.9814815 C0,29.1968333 1.79428571,31 4,31 C6.20571429,31 8,29.1968333 8,26.9814815 C8,24.9613148 6.50685714,23.289037 4.57142857,23.0088889" id="Fill-1"></path>
                <path d="M15.5,18.3703704 C13.7073678,18.3703704 12.2487859,17.0293333 12.2487859,15.3811667 C12.2487859,13.733 13.7067434,12.391963 15.5,12.391963 C17.2932566,12.391963 18.7512141,13.733 18.7512141,15.3811667 C18.7512141,17.0293333 17.2926322,18.3703704 15.5,18.3703704 M16.2536423,11.3063889 L16.2536423,0.574074074 C16.2536423,0.256611111 15.9739143,0 15.6292493,0 C15.2845844,0 15.0048564,0.256611111 15.0048564,0.574074074 L15.0048564,11.2702222 C12.755793,11.4975556 11,13.2542222 11,15.3811667 C11,17.5081111 12.755793,19.2647778 15.0048564,19.4921111 L15.0048564,30.4259259 C15.0048564,30.7433889 15.2845844,31 15.6292493,31 C15.9739143,31 16.2536423,30.7433889 16.2536423,30.4259259 L16.2536423,19.4559444 C18.3765783,19.1247037 20,17.4260185 20,15.3811667 C20,13.3363148 18.3765783,11.6376296 16.2536423,11.3063889" id="Fill-3"></path>
                <path d="M28,6.88888889 C26.4245714,6.88888889 25.1428571,5.60124074 25.1428571,4.01851852 C25.1428571,2.4357963 26.4245714,1.14814815 28,1.14814815 C29.5754286,1.14814815 30.8571429,2.4357963 30.8571429,4.01851852 C30.8571429,5.60124074 29.5754286,6.88888889 28,6.88888889 M32,4.01851852 C32,1.80316667 30.2057143,0 28,0 C25.7942857,0 24,1.80316667 24,4.01851852 C24,6.03868519 25.4931429,7.71096296 27.4285714,7.99111111 L27.4285714,30.4259259 C27.4285714,30.7433889 27.6845714,31 28,31 C28.3154286,31 28.5714286,30.7433889 28.5714286,30.4259259 L28.5714286,7.99111111 C30.5068571,7.71096296 32,6.03868519 32,4.01851852" id="Fill-5"></path>
            </g>
        </g>
    </g>
</svg>