<?xml version="1.0" encoding="UTF-8"?>
<svg width="23px" height="36px" viewBox="0 0 23 36" version="1.1" xmlns="http://www.w3.org/2000/svg" xmlns:xlink="http://www.w3.org/1999/xlink">
    <!-- Generator: Sketch 52.2 (67145) - http://www.bohemiancoding.com/sketch -->
    <title>Group 6</title>
    <desc>Created with Sketch.</desc>
    <defs>
        <polygon id="path-1" points="2.69005848e-05 2.8125e-05 22.9552105 2.8125e-05 22.9552105 36 2.69005848e-05 36"></polygon>
    </defs>
    <g id="UI" stroke="none" stroke-width="1" fill="none" fill-rule="evenodd">
        <g id="Управление_Объекты" transform="translate(-255.000000, -256.000000)">
            <g id="Group-6" transform="translate(255.000000, 256.000000)">
                <path d="M8.66673503,12.8000084 L6.91674357,12.8000084 C5.95192406,12.8000084 5.16675212,11.9924016 5.16675212,11.0000141 C5.16675212,10.0076265 5.95192406,9.20001969 6.91674357,9.20001969 C7.88156308,9.20001969 8.66673503,10.0076265 8.66673503,11.0000141 L8.66673503,12.8000084 Z M13.3333333,11.0000141 C13.3333333,10.0076265 14.1185053,9.20001969 15.0833248,9.20001969 C16.0480759,9.20001969 16.8333162,10.0076265 16.8333162,11.0000141 C16.8333162,11.9924016 16.0480759,12.8000084 15.0833248,12.8000084 L13.3333333,12.8000084 L13.3333333,11.0000141 Z M12.7499573,23 C13.072612,23 13.3333333,22.7311962 13.3333333,22.4000253 L13.3333333,14.0000281 L15.0833248,14.0000281 C16.6915396,14.0000281 18,12.6542511 18,11.0000141 C18,9.34584736 16.691608,8 15.0833248,8 C13.47511,8 12.1666496,9.34577704 12.1666496,11.0000141 L12.1666496,12.8000084 L9.83335042,12.8000084 L9.83335042,11.0000141 C9.83335042,9.34584736 8.52495837,8 6.91667521,8 C5.30846041,8 4,9.34577704 4,11.0000141 C4,12.6541808 5.30839205,14.0000281 6.91667521,14.0000281 L8.66666667,14.0000281 L8.66666667,22.4000253 C8.66666667,22.7311962 8.92800328,23 9.24997437,23 C9.57194545,23 9.83328206,22.7311962 9.83328206,22.4000253 L9.83328206,14.0000281 L12.1665812,14.0000281 L12.1665812,22.4000253 C12.1667179,22.7311962 12.4274393,23 12.7499573,23 Z" id="Fill-1" fill="#000000"></path>
                <g id="Group-5">
                    <mask id="mask-2" fill="white">
                        <use xlink:href="#path-1"></use>
                    </mask>
                    <g id="Clip-4"></g>
                    <path d="M12.6254129,34.2000281 C12.6254129,34.5305672 12.3683105,34.7999344 12.0515561,34.7999344 L10.9037082,34.7999344 C10.5875591,34.7999344 10.3299187,34.5305672 10.3299187,34.2000281 L10.3299187,33.6000516 L12.6254129,33.6000516 L12.6254129,34.2000281 Z M11.4776322,2.8125e-05 C5.14886608,2.8125e-05 2.69005848e-05,5.38322344 2.69005848e-05,12.0000516 C2.69005848e-05,17.0640281 1.89954444,20.8416375 5.97928713,23.8884187 C5.99879006,23.9028328 6.02750643,23.9208328 6.04875789,23.9327859 C6.07861754,23.9495906 6.69612047,24.3101531 6.85106784,25.3217391 C6.2031,25.5803484 5.73886316,26.2326375 5.73886316,27.0000281 C5.73886316,27.4607859 5.90531053,27.8814656 6.17841871,28.2000516 C5.90524327,28.5185672 5.73886316,28.9392469 5.73886316,29.4000047 C5.73886316,29.8608328 5.90531053,30.2814422 6.17841871,30.6000984 C5.90524327,30.9186844 5.73886316,31.3392234 5.73886316,31.8000516 C5.73886316,32.7924422 6.5112462,33.6001219 7.46050058,33.6001219 C7.77725497,33.6001219 8.03429006,33.3313172 8.03429006,33.0001453 C8.03429006,32.6689734 7.77725497,32.4000984 7.46050058,32.4000984 C7.14428421,32.4000984 6.88664386,32.1307312 6.88664386,31.8001219 C6.88664386,31.4695828 7.14428421,31.2002156 7.46050058,31.2002156 L13.1992023,31.2002156 C13.5166292,31.2002156 13.7730591,30.9314109 13.7730591,30.6002391 C13.7730591,30.2690672 13.5166292,30.0002625 13.1992023,30.0002625 L7.46050058,30.0002625 C7.14428421,30.0002625 6.88664386,29.730825 6.88664386,29.4002156 C6.88664386,29.0696766 7.14428421,28.8003094 7.46050058,28.8003094 L13.1992023,28.8003094 C13.5166292,28.8003094 13.7730591,28.5315047 13.7730591,28.2003328 C13.7730591,27.8691609 13.5166292,27.6003562 13.1992023,27.6003562 L7.46050058,27.6003562 C7.14428421,27.6003562 6.88664386,27.3309891 6.88664386,27.0003094 C6.88664386,26.6697 7.14428421,26.4003328 7.46050058,26.4003328 L13.1992023,26.4003328 C13.5166292,26.4003328 13.7730591,26.1315984 13.7730591,25.8004266 C13.7730591,25.4692547 13.5166292,25.20045 13.1992023,25.20045 L7.99535146,25.20045 C7.7921848,23.6896453 6.85564094,23.0350359 6.62093333,22.8933562 C2.83561754,20.0571609 1.14787485,16.6966453 1.14787485,12.0003328 C1.14787485,6.04542656 5.78197135,1.20040312 11.4776994,1.20040312 C17.1734275,1.20040312 21.8074567,6.04542656 21.8074567,12.0003328 C21.8074567,16.696575 20.119714,20.0571609 16.3343982,22.8933562 C16.0705035,23.0524031 14.9209743,23.85945 14.9209743,25.8004266 C14.9209743,26.1315984 15.1774041,26.4003328 15.494831,26.4003328 C15.8115854,26.4003328 16.0686205,26.6697 16.0686205,27.0003094 C16.0686205,27.3309891 15.8115854,27.6003562 15.494831,27.6003562 C15.1774041,27.6003562 14.9209743,27.8691609 14.9209743,28.2003328 C14.9209743,28.5315047 15.1774041,28.8003094 15.494831,28.8003094 C15.8115854,28.8003094 16.0686205,29.0696766 16.0686205,29.4002156 C16.0686205,29.730825 15.8115854,30.0002625 15.494831,30.0002625 C15.1774041,30.0002625 14.9209743,30.2690672 14.9209743,30.6002391 C14.9209743,30.9314109 15.1774041,31.2002156 15.494831,31.2002156 C15.8115854,31.2002156 16.0686205,31.4695828 16.0686205,31.8001219 C16.0686205,32.1421219 15.8218749,32.4000984 15.494831,32.4000984 L9.75599474,32.4000984 C9.43924035,32.4000984 9.18213801,32.6689734 9.18213801,33.0001453 L9.18213801,34.2000281 C9.18213801,35.1923484 9.9545883,36.0000281 10.9037082,36.0000281 L12.0515561,36.0000281 C13.0007433,36.0000281 13.7731263,35.1923484 13.7731263,34.2000281 L13.7731263,33.6000516 L15.494831,33.6000516 C16.4606292,33.6000516 17.2164684,32.8092469 17.2164684,31.7999812 C17.2164684,31.3391531 17.0500211,30.9186844 16.7767784,30.6000281 C17.0500211,30.2814422 17.2164684,29.8608328 17.2164684,29.3999344 C17.2164684,28.9391766 17.0500211,28.5185672 16.7767784,28.1999812 C17.0500211,27.8813953 17.2164684,27.4607156 17.2164684,26.9999578 C17.2164684,26.2325672 16.7520971,25.5802781 16.1037257,25.3216687 C16.2586058,24.3101531 16.8755035,23.9501531 16.8991088,23.9363016 C16.9260094,23.9225906 16.9519012,23.9063484 16.9759099,23.8883484 C21.0551146,20.8415672 22.9552374,17.0639578 22.9552374,11.9999812 C22.9552374,5.38322344 17.8063982,2.8125e-05 11.4776322,2.8125e-05 Z" id="Fill-3" fill="#000000" mask="url(#mask-2)"></path>
                </g>
            </g>
        </g>
    </g>
</svg>