<?xml version="1.0" encoding="UTF-8"?>
<svg width="18px" height="19px" viewBox="0 0 18 19" version="1.1" xmlns="http://www.w3.org/2000/svg" xmlns:xlink="http://www.w3.org/1999/xlink">
    <!-- Generator: Sketch 52.2 (67145) - http://www.bohemiancoding.com/sketch -->
    <title>logout</title>
    <desc>Created with Sketch.</desc>
    <g id="Symbols" stroke="none" stroke-width="1" fill="none" fill-rule="evenodd">
        <g id="heder" transform="translate(-920.000000, -9.000000)" fill="#000000">
            <g id="logout" transform="translate(920.000000, 9.000000)">
                <path d="M8.88247012,17.9112903 L3.98605578,17.9112903 C2.65537849,17.9112903 1.57569721,16.8145161 1.57569721,15.4717742 L1.57569721,3.52822581 C1.57569721,2.18145161 2.65936255,1.08870968 3.98605578,1.08870968 L8.96215139,1.08870968 C9.26095618,1.08870968 9.5,0.846774194 9.5,0.544354839 C9.5,0.241935484 9.26095618,0 8.96215139,0 L3.98605578,0 C2.06175299,0 0.5,1.58467742 0.5,3.52822581 L0.5,15.4717742 C0.5,17.4193548 2.06573705,19 3.98605578,19 L8.88247012,19 C9.1812749,19 9.42031873,18.7580645 9.42031873,18.4556452 C9.42031873,18.1532258 9.17729084,17.9112903 8.88247012,17.9112903 Z" id="Path"></path>
                <path d="M17.3336358,9.61313042 L13.7314326,6.15997988 C13.5089189,5.94667337 13.1520573,5.94667337 12.9295436,6.15997988 C12.7070299,6.37328638 12.7070299,6.71538171 12.9295436,6.92868822 L15.5661212,9.45616904 L4.06678022,9.45616904 C3.75190232,9.45616904 3.5,9.69764809 3.5,9.99949692 C3.5,10.3013457 3.75190232,10.5428248 4.06678022,10.5428248 L15.5661212,10.5428248 L12.9295436,13.0703056 C12.7070299,13.2836121 12.7070299,13.6257075 12.9295436,13.839014 C13.0387012,13.9436549 13.1856443,14 13.3283889,14 C13.4711336,14 13.6180766,13.9476795 13.7272343,13.839014 L17.3294375,10.3858634 C17.5561495,10.1685323 17.5561495,9.82241228 17.3336358,9.61313042 Z" id="Path"></path>
            </g>
        </g>
    </g>
</svg>