<?xml version="1.0" encoding="UTF-8"?>
<svg width="29px" height="21px" viewBox="0 0 29 21" version="1.1" xmlns="http://www.w3.org/2000/svg" xmlns:xlink="http://www.w3.org/1999/xlink">
    <!-- Generator: Sketch 52.2 (67145) - http://www.bohemiancoding.com/sketch -->
    <title>сообщения</title>
    <desc>Created with Sketch.</desc>
    <defs>
        <polygon id="path-1" points="0 0 28.6115086 0 28.6115086 20.3076002 0 20.3076002"></polygon>
    </defs>
    <g id="Symbols" stroke="none" stroke-width="1" fill="none" fill-rule="evenodd">
        <g id="сообщения" transform="translate(-10.000000, -11.000000)">
            <g transform="translate(10.000000, 11.000000)">
                <path d="M22.7618999,15.9230769 C22.668251,15.9230769 22.574602,15.8814212 22.5007488,15.7971841 L18.1198062,10.8003491 C17.9667701,10.6263208 17.9591564,10.3328794 18.1038173,10.1468172 C18.2469555,9.95890359 18.4875495,9.95057244 18.6421083,10.1264521 L23.023051,15.1242128 C23.176087,15.2973154 23.1837008,15.5916825 23.0390398,15.7768191 C22.9644252,15.8740157 22.8639239,15.9230769 22.7618999,15.9230769" id="Fill-1" fill="#000000"></path>
                <path d="M5.52384928,15.9230769 C5.42260582,15.9230769 5.32136236,15.874007 5.24600069,15.776793 C5.10212841,15.5916236 5.1097407,15.2972041 5.26274773,15.1240707 L9.64438184,10.1254211 C9.79815009,9.95136185 10.0394597,9.95876862 10.1825707,10.1457898 C10.326443,10.3318851 10.3188307,10.6253787 10.1658237,10.799438 L5.78418959,15.7971617 C5.71111161,15.8814138 5.61748044,15.9230769 5.52384928,15.9230769" id="Fill-3" fill="#000000"></path>
                <g id="Group-7" transform="translate(0.000000, 0.692308)">
                    <mask id="mask-2" fill="white">
                        <use xlink:href="#path-1"></use>
                    </mask>
                    <g id="Clip-6"></g>
                    <path d="M2.30648689,0.921109099 C1.54350103,0.921109099 0.922594758,1.54101552 0.922594758,2.30277275 L0.922594758,18.0049196 C0.922594758,18.7675979 1.54350103,19.3865832 2.30648689,19.3865832 L26.3050217,19.3865832 C27.0680076,19.3865832 27.6889139,18.7675979 27.6889139,18.0049196 L27.6889139,2.30277275 C27.6889139,1.54101552 27.0680076,0.921109099 26.3050217,0.921109099 L2.30648689,0.921109099 Z M26.3050217,20.3076923 L2.30648689,20.3076923 C1.03515132,20.3076923 0,19.275129 0,18.0049196 L0,2.30277275 C0,1.0325633 1.03515132,0 2.30648689,0 L26.3050217,0 C27.5763573,0 28.6115086,1.0325633 28.6115086,2.30277275 L28.6115086,18.0049196 C28.6115086,19.275129 27.5763573,20.3076923 26.3050217,20.3076923 Z" id="Fill-5" fill="#000000" mask="url(#mask-2)"></path>
                </g>
                <path d="M13.7214628,13.3846154 C13.1452903,13.3846154 12.5691177,13.1790946 12.1307067,12.769913 L1.00581122,2.35252126 C0.82559484,2.18512878 0.806533493,1.89126199 0.963356397,1.69690073 C1.12191215,1.50346942 1.39483599,1.48580021 1.57505237,1.65133277 L12.6999479,12.0668646 C13.2535934,12.5857813 14.1893323,12.5857813 14.7421113,12.0668646 L25.8531441,1.66807202 C26.032494,1.49974959 26.3054178,1.51834875 26.46484,1.71271001 C26.6216629,1.90707128 26.603468,2.20093807 26.4232516,2.3692605 L15.3122189,12.7689831 C14.8729415,13.1790946 14.2976354,13.3846154 13.7214628,13.3846154" id="Fill-8" fill="#000000"></path>
            </g>
        </g>
    </g>
</svg>