<?xml version="1.0" encoding="UTF-8"?>
<svg width="24px" height="30px" viewBox="0 0 24 30" version="1.1" xmlns="http://www.w3.org/2000/svg" xmlns:xlink="http://www.w3.org/1999/xlink">
    <!-- Generator: Sketch 52.2 (67145) - http://www.bohemiancoding.com/sketch -->
    <title>уведомления</title>
    <desc>Created with Sketch.</desc>
    <defs>
        <polygon id="path-1" points="0 0 24 0 24 30 0 30"></polygon>
    </defs>
    <g id="Symbols" stroke="none" stroke-width="1" fill="none" fill-rule="evenodd">
        <g id="уведомления" transform="translate(-8.000000, -6.000000)">
            <g transform="translate(8.000000, 6.000000)">
                <g id="Group-3">
                    <mask id="mask-2" fill="white">
                        <use xlink:href="#path-1"></use>
                    </mask>
                    <g id="Clip-2"></g>
                    <path d="M23.0399663,25.5012432 C23.0399663,25.7773816 22.8250891,26.001286 22.5600096,26.001286 L1.43999038,26.001286 C1.17491094,26.001286 0.960033669,25.7773816 0.960033669,25.5012432 L0.960033669,23.5011347 C0.960033669,23.2249963 1.17491094,23.0011545 1.43999038,23.0011545 L22.5600096,23.0011545 C22.8250891,23.0011545 23.0399663,23.2249963 23.0399663,23.5011347 L23.0399663,25.5012432 Z M12,29.0014175 C10.8600201,28.9999144 9.8777412,28.1646726 9.64807383,27.001309 L14.3519262,27.001309 C14.1222588,28.1646726 13.1399799,28.9999144 12,29.0014175 Z M3.3599976,12.5006315 C3.3599976,7.52995309 7.22838977,3.50017432 12,3.50017432 C16.7718507,3.50017432 20.6400024,7.52995309 20.6400024,12.5006315 L20.6400024,22.0010689 L3.3599976,22.0010689 L3.3599976,12.5006315 Z M11.0400265,1.50006576 C11.0400265,1.2239274 11.2549037,1.00002296 11.5199832,1.00002296 L12.4799567,1.00002296 C12.7450963,1.00002296 12.9600337,1.2239274 12.9600337,1.50006576 L12.9600337,2.55019322 C12.6443312,2.51768793 12.3241797,2.50015136 12,2.50015136 C11.6761209,2.50015136 11.3559694,2.51818897 11.0400265,2.55019322 L11.0400265,1.50006576 Z M22.5600096,22.0010689 L21.599976,22.0010689 L21.599976,12.5006315 C21.595106,7.7499118 18.3871579,3.6564377 13.9200072,2.70006827 L13.9200072,1.50006576 C13.9200072,0.671650672 13.2752551,0 12.4799567,0 L11.5199832,0 C10.724805,0 10.0799928,0.671650672 10.0799928,1.50006576 L10.0799928,2.70006827 C5.61284213,3.6564377 2.40519457,7.7499118 2.40002405,12.5006315 L2.40002405,22.0010689 L1.43999038,22.0010689 C0.64475207,22.0010689 0,22.6727822 0,23.5011347 L0,25.5012432 C0,26.3297209 0.64475207,27.001309 1.43999038,27.001309 L8.67842059,27.001309 C8.91560325,28.7223982 10.3310036,30 12,30 C13.6689964,30 15.0843967,28.7223982 15.3215794,27.001309 L22.5600096,27.001309 C23.3551878,27.001309 24,26.3297209 24,25.5012432 L24,23.5011347 C24,22.6727822 23.3551878,22.0010689 22.5600096,22.0010689 Z" id="Fill-1" fill="#000000" mask="url(#mask-2)"></path>
                </g>
                <circle id="Oval-Copy-5" fill="#FF0000" cx="19.7142857" cy="6.42857143" r="3"></circle>
            </g>
        </g>
    </g>
</svg>