<?xml version="1.0" encoding="UTF-8"?>
<svg width="21px" height="21px" viewBox="0 0 21 21" version="1.1" xmlns="http://www.w3.org/2000/svg" xmlns:xlink="http://www.w3.org/1999/xlink">
    <!-- Generator: Sketch 52.2 (67145) - http://www.bohemiancoding.com/sketch -->
    <title>Group 6</title>
    <desc>Created with Sketch.</desc>
    <defs>
        <polygon id="path-1" points="0 0.000123046875 20.9999508 0.000123046875 20.9999508 20.9999877 0 20.9999877"></polygon>
    </defs>
    <g id="Symbols" stroke="none" stroke-width="1" fill="none" fill-rule="evenodd">
        <g id="heder" transform="translate(-878.000000, -8.000000)">
            <g id="Group-6" transform="translate(888.500000, 18.500000) rotate(-360.000000) translate(-888.500000, -18.500000) translate(878.000000, 8.000000)">
                <g id="Group-3" transform="translate(0.000000, 0.000000)">
                    <mask id="mask-2" fill="white">
                        <use xlink:href="#path-1"></use>
                    </mask>
                    <g id="Clip-2"></g>
                    <path d="M20.0193492,11.4388764 C20.0193492,11.498349 19.9761188,11.5496186 19.9187379,11.5582729 C19.5298277,11.616474 19.1305816,11.6722553 18.7320738,11.7243041 C18.2908277,11.781808 17.9298492,12.0944291 17.8122574,12.5208275 C17.6470055,13.1203939 17.4072281,13.6990834 17.0996109,14.2407357 C16.8808746,14.6257904 16.9149176,15.102515 17.1862359,15.4552494 C17.4313453,15.7738588 17.6742809,16.0957904 17.908275,16.4121029 C17.9428102,16.4587787 17.937068,16.5256752 17.895027,16.5677162 L16.5674742,17.8952279 C16.5253922,17.93731 16.4585367,17.9429291 16.411902,17.908517 C16.0962457,17.674933 15.774191,17.4319975 15.4550074,17.1864779 C15.1023141,16.9150775 14.6256305,16.8810756 14.2405758,17.0997709 C13.6989645,17.4073881 13.120275,17.6471654 12.5206266,17.8124994 C12.0943102,17.9300092 11.7816891,18.2910287 11.7240621,18.7322748 C11.6720953,19.1310287 11.616232,19.5302748 11.5580719,19.9189389 C11.5494996,19.9763197 11.498148,20.0195502 11.4386754,20.0195502 L9.56126719,20.0195502 C9.50179453,20.0195502 9.45044297,19.9763197 9.4418707,19.9188979 C9.38383359,19.530685 9.3279293,19.1314799 9.27588047,18.7323158 C9.21833555,18.2910287 8.90563242,17.9300502 8.47931602,17.8125404 C7.87962656,17.6472064 7.30093711,17.4074291 6.7593668,17.0997709 C6.59050547,17.0039174 6.40400742,16.9565443 6.21812461,16.9565443 C5.98006992,16.9565443 5.74295859,17.0340639 5.54497617,17.18656 C5.22575156,17.4320795 4.90377891,17.675015 4.58808164,17.908599 C4.54140586,17.9430111 4.47459141,17.937392 4.43255039,17.89531 L3.10499766,16.5678393 C3.06291562,16.5257162 3.05717344,16.4589018 3.09170859,16.412226 C3.32553867,16.0961596 3.5684332,15.7741869 3.81374766,15.4553725 C4.08506602,15.1025971 4.11910898,14.6259545 3.90045469,14.2408998 C3.59271445,13.6991244 3.35297812,13.120476 3.18772617,12.5209916 C3.07021641,12.0946342 2.70919687,11.7819721 2.26795078,11.7244271 C1.86960703,11.6724604 1.47031992,11.6165561 1.08120469,11.5583959 C1.02382383,11.5497826 0.980593359,11.4984721 0.980593359,11.4389994 L0.980593359,9.5615502 C0.980593359,9.50207754 1.02382383,9.45076699 1.08120469,9.44215371 C1.47031992,9.38395254 1.86956602,9.32808926 2.26786875,9.27616348 C2.70915586,9.21861855 3.07017539,8.90595645 3.18768516,8.47964004 C3.35285508,7.88011465 3.59267344,7.3014252 3.90041367,6.75969082 C4.11910898,6.3745541 4.08506602,5.89787051 3.81374766,5.54521816 C3.56908945,5.22710098 3.32615391,4.90521035 3.09170859,4.58836465 C3.05725547,4.54168887 3.06295664,4.47475137 3.10499766,4.43279238 L4.43246836,3.10519863 C4.47446836,3.06315762 4.54136484,3.05749746 4.58799961,3.09190957 C4.90369687,3.32549355 5.22566953,3.56838809 5.54489414,3.81398965 C5.89762852,4.08526699 6.37427109,4.11935098 6.75940781,3.90061465 C7.30093711,3.59299746 7.87962656,3.3531791 8.479275,3.18788613 C8.90563242,3.07037637 9.21833555,2.70939785 9.27588047,2.26806973 C9.32797031,1.86894668 9.38379258,1.46970059 9.44191172,1.08136465 C9.45048398,1.02406582 9.50183555,0.980794336 9.5613082,0.980794336 L11.4387164,0.980794336 C11.4981891,0.980794336 11.5495406,1.0240248 11.5581129,1.08144668 C11.616232,1.46961855 11.6720543,1.86882363 11.7241441,2.26806973 C11.7816891,2.70939785 12.0943922,3.07037637 12.5207086,3.18788613 C13.120357,3.3531791 13.6990055,3.59299746 14.2406578,3.90061465 C14.6257125,4.11926895 15.1023961,4.08526699 15.4550484,3.81390762 C15.774273,3.56834707 16.0962867,3.32545254 16.411902,3.09186855 C16.4585777,3.0573334 16.5254742,3.06307559 16.5675152,3.10515762 L17.895027,4.43266934 C17.937109,4.47475137 17.9427691,4.54164785 17.908316,4.58828262 C17.6743219,4.90463613 17.4313863,5.22652676 17.186277,5.54513613 C16.9149586,5.89791152 16.8809156,6.37459512 17.099652,6.75969082 C17.4073102,7.30134316 17.6470875,7.87995059 17.8123805,8.47964004 C17.9299313,8.90591543 18.2909918,9.21853652 18.7321148,9.27608145 C19.1306227,9.32804824 19.5299098,9.38391152 19.9188609,9.44207168 C19.9762418,9.45068496 20.0194723,9.50199551 20.0194723,9.56150918 L20.0194723,11.4388764 L20.0193492,11.4388764 Z M20.0638102,8.47213418 C19.6688707,8.41298965 19.2634312,8.35626504 18.8588121,8.30351895 C18.8097984,8.29716152 18.7700133,8.26389785 18.7576266,8.2188627 C18.5709234,7.54116152 18.2998922,6.8872084 17.9522848,6.27517324 C17.9288648,6.2341166 17.9332945,6.18223184 17.963441,6.14297988 C18.2122828,5.81957168 18.4589508,5.49263613 18.6966363,5.17131973 C19.0175426,4.73745645 18.9709488,4.12185293 18.5883551,3.73917715 L17.2608434,2.41166543 C16.8782086,2.02907168 16.2626051,1.98247793 15.8286598,2.30350723 C15.5080406,2.54061855 15.1811461,2.78728652 14.8570406,3.03666152 C14.8179527,3.06680801 14.7659449,3.07119668 14.7248473,3.04785879 C14.1128531,2.70021035 13.4589,2.42922012 12.7811578,2.24243496 C12.7360816,2.23008926 12.702818,2.1903041 12.6964195,2.14116738 C12.6435504,1.73593301 12.5868668,1.33053457 12.5279273,0.936333398 C12.4480289,0.402556055 11.9797945,0.000110742187 11.4386754,0.000110742187 L9.56126719,0.000110742187 C9.02010703,0.000110742187 8.55187266,0.402556055 8.47213828,0.936292383 C8.4131168,1.33057559 8.3564332,1.73593301 8.30356406,2.14124941 C8.29712461,2.19034512 8.26390195,2.23004824 8.21878477,2.24243496 C7.54104258,2.42930215 6.88704844,2.70025137 6.27517734,3.04785879 C6.23403867,3.07119668 6.18211289,3.06668496 6.14290195,3.03666152 C5.8188375,2.78728652 5.49190195,2.54061855 5.1712418,2.30346621 C4.73725547,1.98247793 4.12165195,2.02919473 3.73909922,2.41170645 L2.4115875,3.73921816 C2.02895273,4.12189395 1.9824,4.73757949 2.30338828,5.17140176 C2.54144297,5.49321035 2.78811094,5.82006387 3.03654258,6.14297988 C3.06668906,6.1821498 3.07111875,6.23403457 3.04778086,6.27517324 C2.70005039,6.88733145 2.42910117,7.54128457 2.24235703,8.2188627 C2.23001133,8.26385684 2.19022617,8.29712051 2.14117148,8.30355996 C1.73675742,8.35634707 1.33135898,8.41307168 0.936214453,8.4721752 C0.402437109,8.55195059 -8.203125e-06,9.02026699 -8.203125e-06,9.56134512 L-8.203125e-06,11.4387943 C-8.203125e-06,11.9799135 0.402437109,12.4481889 0.936132422,12.5280463 C1.33127695,12.5871498 1.73671641,12.6438334 2.14113047,12.6965795 C2.19022617,12.7030189 2.2299293,12.7362416 2.24231602,12.7813178 C2.42906016,13.4589369 2.70005039,14.11289 3.04773984,14.7250072 C3.07107773,14.7661459 3.06664805,14.8180717 3.03650156,14.8572416 C2.78745469,15.1808959 2.54078672,15.5077904 2.30334727,15.8288197 C1.9824,16.262683 2.02891172,16.8783686 2.41154648,17.2610033 L3.7390582,18.588515 C4.12173398,18.9711908 4.73741953,19.0177436 5.1712418,18.6967143 C5.49186094,18.4595619 5.81875547,18.2128939 6.14286094,17.96356 C6.18203086,17.9334135 6.23395664,17.9290248 6.2750543,17.9523627 C6.88700742,18.2999701 7.54091953,18.5709193 8.21874375,18.7577455 C8.26381992,18.7701322 8.29708359,18.8098764 8.30348203,18.8589311 C8.35635117,19.2641654 8.41307578,19.6696049 8.47205625,20.0638061 C8.55187266,20.5975424 9.02010703,20.9999877 9.56126719,20.9999877 L11.4386754,20.9999877 C11.9797945,20.9999877 12.4480699,20.5975424 12.5278863,20.063724 C12.5868668,19.6690307 12.6435504,19.2636322 12.6963785,18.858849 C12.702818,18.8097533 12.7360406,18.7700092 12.7811168,18.7575814 C13.458859,18.5707143 14.1128531,18.299765 14.7247652,17.9521986 C14.7659039,17.9289018 14.8178297,17.9333314 14.8570406,17.9633959 C15.1810641,18.2127299 15.5079996,18.4593979 15.8286187,18.6965502 C16.262482,19.0174975 16.8781266,18.9710268 17.2608023,18.588392 L18.5883141,17.2608393 C18.9709078,16.8782045 19.0175016,16.26256 18.6965543,15.8286557 C18.4588687,15.5074623 18.2121598,15.1805678 17.963359,14.8570365 C17.9332535,14.8179076 17.9287828,14.7659818 17.9522027,14.7248432 C18.2998512,14.112726 18.5708414,13.4587729 18.7575445,12.7812357 C18.7700133,12.7360775 18.8097164,12.7028549 18.8588121,12.6964154 C19.2633492,12.6436693 19.6687887,12.5869447 20.0637691,12.5278822 C20.5975055,12.4480658 20.9999508,11.9797904 20.9999508,11.4386713 L20.9999508,9.56122207 C20.9999508,9.02022598 20.5975465,8.55190957 20.0638102,8.47213418 Z" id="Fill-1" fill="#000000" mask="url(#mask-2)"></path>
                </g>
                <path d="M10.5,13.6834746 C8.55247269,13.6834746 6.96811507,12.0198491 6.96811507,9.97497874 C6.96811507,7.93006587 8.55255367,6.26648288 10.5,6.26648288 C12.4474868,6.26648288 14.0318849,7.93010838 14.0318849,9.97497874 C14.0318849,12.0198491 12.4475273,13.6834746 10.5,13.6834746 M10.5,5.25 C8.01867115,5.25 6,7.36961425 6,9.97497874 C6,12.5804283 8.01867115,14.7 10.5,14.7 C12.9813288,14.7 15,12.5804283 15,9.97497874 C15,7.36961425 12.9813288,5.25 10.5,5.25" id="Fill-4" fill="#000000"></path>
            </g>
        </g>
    </g>
</svg>